<svg xmlns="http://www.w3.org/2000/svg" version="1.1" xmlns:xlink="http://www.w3.org/1999/xlink" xmlns:svgjs="http://svgjs.dev/svgjs" viewBox="0 0 8.21509121471996 6.766680470636739"><g transform="matrix(0.8442350809228624,0,0,0.8442350809228624,2.7949137920656737,2.464060233494532)"><rect width="9.463572188499684" height="9.463572188499684" x="-3.176968194643701" y="-3.6428950701775653" fill="#0e1425"></rect><g><path d=" M -1.189654145792937 2.3348549243278405 L -1.76247406244672 2.510010121466702 L -1.1931348856955186 2.6431938359976628 L -1.1858645009729194 2.667113315632166 L -1.5828723014556307 3.094020572956142 L -1.0116751277837042 2.9204037857804686 L -0.9971343583385055 2.968242745049474 L -1.6668797881045836 3.171813517282257 L -1.6793848498274544 3.130672012310912 L -1.2527925272637583 2.6738690018898867 L -1.861435283281343 2.5317282422629623 L -1.87364952961531 2.4915435164769977 L -1.2041949152381357 2.287015965058835 L -1.189654145792937 2.3348549243278405 M -1.263542522688433 1.5240015616234035 L -1.2175447674665651 1.524456000342187 L -1.2223163740137928 2.007432430171799 L -1.9222822143465643 2.0005170583642227 L -1.9176587943380703 1.5325398965417412 L -1.8716610391162025 1.5329943352605249 L -1.8757806248930016 1.9499739858587615 L -1.5997940935617945 1.9527006181714632 L -1.5961091882986145 1.5797188203941435 L -1.5511113842772222 1.5801633800103447 L -1.5547962895404022 1.9531451777876645 L -1.2678102950039658 1.9559804802287708 L -1.263542522688433 1.5240015616234035 M -1.0516930369762272 0.8388451429106191 L -1.3219778770032151 0.9367793312800818 Q -1.3271102808207949 0.9737611975263017 -1.3354453284871708 1.0036196465884892 L -1.3892198295605636 1.196254801828408 L -1.1686525768108562 1.2578266055574427 L -1.1823650745845715 1.306948570143622 L -1.8565881179242878 1.1187378163867474 L -1.78910111907718 0.8769806965606493 Q -1.7536099483687408 0.7498414941023027 -1.6732460244537437 0.6944078424727683 Q -1.5928821005387468 0.6389741908432339 -1.4859695893805918 0.6688190389389669 Q -1.4060259999560254 0.6911354568844249 -1.3630336500788442 0.7472617239261412 Q -1.320041300201663 0.8033879909678574 -1.3191291852730624 0.8856629449110656 L -1.036098431664943 0.7829809478910426 L -1.0516930369762272 0.8388451429106191 M -1.3787882384161525 0.9915203838469758 Q -1.3486745178150525 0.8836446969126212 -1.3804882409202817 0.8135081371011803 Q -1.4123019640255108 0.7433715772897396 -1.499950959659674 0.7189041793013459 Q -1.587599955293837 0.6944367813129522 -1.6511406340323678 0.7379549630930635 Q -1.7146813127708986 0.7814731448731749 -1.7447950333719986 0.8893488318075295 L -1.7985695344453914 1.0819839870474484 L -1.4325627394895453 1.1841555390868947 L -1.3787882384161525 0.9915203838469758 M -0.9219144958226239 0.4775555862899282 Q -1.0039286582828653 0.5244163071117971 -1.0978213266528711 0.523226001957609 Q -1.191713995022877 0.522035696803421 -1.2781837481724194 0.46984391785062785 Q -1.3646535013219616 0.41765213889783465 -1.4094548924591423 0.335128897612889 Q -1.454256283596323 0.2526056563279434 -1.451006648757447 0.15820390913323323 Q -1.4477570139185707 0.06380216193852317 -1.3945317343924548 -0.024379863550614056 Q -1.3552587126061946 -0.08944621245522 -1.3012113580998328 -0.13157854529905444 Q -1.2471640035934708 -0.17371087814288888 -1.182815704543434 -0.18743299202403063 L -1.1710992201132804 -0.1429838751306889 Q -1.2855655462860194 -0.1139587106605926 -1.3532598338386521 -0.0018048724171269015 Q -1.3987338590648482 0.07353511052504857 -1.4016944329125653 0.15584692621691754 Q -1.404655006760282 0.23815874190878655 -1.3654841685426762 0.30969122008010486 Q -1.3263133303250703 0.3812236982514232 -1.2518294835526922 0.42618097319095793 Q -1.1773456367803141 0.47113824813049265 -1.09580127505648 0.4724675603784203 Q -1.0142569133326458 0.47379687262634784 -0.9428054459011329 0.43282507986738433 Q -0.87135397846962 0.3918532871084208 -0.825879953243424 0.31651330416624535 Q -0.7587024159774526 0.2052156020925771 -0.7866940798742261 0.08903700358024325 L -0.7419055770977482 0.07869340560654847 Q -0.72406480384723 0.1420235470071769 -0.7359917930919488 0.21016308712564524 Q -0.7479187823366678 0.27830262724411364 -0.7866750538362666 0.34251283997892223 Q -0.8399003333623825 0.4306948654680594 -0.9219144958226239 0.4775555862899282 M -0.208121667983373 -0.3939260281074056 L -0.17622785776453848 -0.3607781040438241 L -0.5242810604321442 -0.025893096746061356 L -1.0096216507187568 -0.5303180281483885 L -0.6723775537240582 -0.8548028799400096 L -0.6404837435052237 -0.821654955876428 L -0.9409768812120385 -0.5325306328056888 L -0.7496140198990313 -0.33364308842419976 L -0.48082759216607696 -0.5922602886769234 L -0.44962712564765184 -0.5598329716582023 L -0.7184135533806062 -0.3012157714054787 L -0.519423911363095 -0.09440154953052465 L -0.208121667983373 -0.3939260281074056 M -0.32486614927588997 -1.1118677982916632 L -0.07976390797239041 -1.2409177549286228 Q 0.016684266403354853 -1.291699145807426 0.11241851708497541 -1.2912483172051359 Q 0.20815276776659586 -1.2907974886028455 0.28677831612003546 -1.2423488235425886 Q 0.36540386447347495 -1.1939001584823319 0.4124581807923663 -1.1045307491983847 Q 0.45951249711125763 -1.015161339914437 0.4549625556360728 -0.9229195487752121 Q 0.45041261416088785 -0.8306777576359872 0.3966079522782795 -0.751492478955552 Q 0.34280329039567103 -0.6723072002751169 0.24635511601992577 -0.6215258093963134 L 0.001252874716426225 -0.49247585275935396 L -0.32486614927588997 -1.1118677982916632 M 0.2213850547545318 -0.6603651713941947 Q 0.30721508149258037 -0.7055559504331299 0.35475711227213275 -0.7740979471165946 Q 0.40229914305168524 -0.8426399438000594 0.40554695043143174 -0.9223296655163765 Q 0.40879475781117824 -1.0020193872326937 0.3673310533321552 -1.0807706488789444 Q 0.3258673488531322 -1.159521910525195 0.2583275053149004 -1.2019408866423904 Q 0.19078766177666873 -1.2443598627595858 0.10737253835796151 -1.243950980084675 Q 0.02395741493925435 -1.2435420974097644 -0.06187261179879422 -1.198351318370829 L -0.2583083430961838 -1.094924999333266 L 0.024949323457142264 -0.5569388523566315 L 0.2213850547545318 -0.6603651713941947 M 1.5481670950584423 -0.958018628754472 L 1.3609032656279116 -1.176140746356088 Q 1.324498912260985 -1.1678508093276225 1.2936232067005278 -1.1650775790551862 L 1.094425106310482 -1.1471857708459194 L 1.1149112267100922 -0.9191039458993169 L 1.0641157111106305 -0.9145415348059538 L 1.001494382378197 -1.6117348861711145 L 1.2514879983677045 -1.6341891054737443 Q 1.3829587446251348 -1.6459976988918603 1.463249222336798 -1.590457720598446 Q 1.543539700048461 -1.5349177423050318 1.553469653604604 -1.4243627965885564 Q 1.56089475401145 -1.3416955849266872 1.523619593497683 -1.28162011232203 Q 1.486344432983916 -1.2215446397173728 1.4097187412739136 -1.1915695939298572 L 1.6059345441715553 -0.9632072531351593 L 1.5481670950584423 -0.958018628754472 M 1.2895975498534429 -1.2098971516429464 Q 1.4011484860718686 -1.219916564240136 1.4554837031551386 -1.2744961775084058 Q 1.5098189202384087 -1.329075790776676 1.5016781475031922 -1.419710926454147 Q 1.4935373747679759 -1.5103460621316178 1.4303457126211188 -1.5543695085564204 Q 1.3671540504742616 -1.5983929549812232 1.255603114255836 -1.588373542384034 L 1.05640501386579 -1.5704817341747672 L 1.0903994494633968 -1.1920053434336797 L 1.2895975498534429 -1.2098971516429464 M 2.299305064037039 -0.9045253028945542 L 2.2913973865025103 -0.8592100887164229 L 1.8155876376321316 -0.9422407028289718 L 1.9359218609836517 -1.6318200490179267 L 2.396954909578553 -1.5513680254057673 L 2.3890472320440246 -1.5060528112276361 L 1.978254964385747 -1.5777376271384704 L 1.9308088991785763 -1.3058463420696824 L 2.2982561793621192 -1.241725391626658 L 2.2905204078609502 -1.1973952908002252 L 1.9230731276774071 -1.2615162412432497 L 1.8737360961032838 -0.9787887093057781 L 2.299305064037039 -0.9045253028945542 M 2.9757559165863254 -0.7860660225531966 L 2.6071243083812075 -0.956203430056979 L 2.44376154382825 -0.8146315149127139 L 2.393823764391596 -0.8376796858799751 L 2.979527121767694 -1.3383148595926964 L 3.0258330626998644 -1.316942919241236 L 3.024855704545678 -0.5464346163845837 L 2.9749179251090236 -0.5694827873518449 L 2.9757559165863254 -0.7860660225531966 M 2.976524162809886 -0.8330703819014526 L 2.9787588837995074 -1.2769926791811663 L 2.6433029800234857 -0.9868645409011771 L 2.976524162809886 -0.8330703819014526 M 3.5889807948418317 -0.9888647343351277 L 3.6287366601222857 -0.9569199197981424 L 3.219091391353886 -0.4471094120840845 L 3.5332406797464935 -0.19468274035065147 L 3.5044277097719574 -0.15882450892122235 L 3.150522556098896 -0.44319599519164066 L 3.5889807948418317 -0.9888647343351277 M 3.8322232743997118 0.21166801122416873 Q 3.8174514257380117 0.1387688172154842 3.832086991385615 0.08335401577963403 L 3.8764966395751537 0.08246905946355272 Q 3.863326627607762 0.13458960037381917 3.876045295090178 0.2005042079920986 Q 3.8887639625725936 0.266418815610378 3.925661310336184 0.32472478209763106 Q 3.9791357273848655 0.40922618280379497 4.038518212348036 0.4320016186854395 Q 4.097900697311205 0.45477705456708406 4.149446551741965 0.4221576601673883 Q 4.189162210073862 0.397024684154508 4.198384509668444 0.3592364691902129 Q 4.207606809263026 0.32144825422591783 4.198892252549478 0.27962653138615 Q 4.19017769583593 0.23780480854638225 4.167335316355812 0.17178794933840175 Q 4.142215281362499 0.09656173155540604 4.132559929561972 0.047643185158277174 Q 4.122904577761444 -0.0012753612388517327 4.137213417485434 -0.048791222861610584 Q 4.151522257209424 -0.09630708448436942 4.204758139654308 -0.1299959672250388 Q 4.247853854014451 -0.15726791991986644 4.298205041917715 -0.15717916897489181 Q 4.348556229820979 -0.15709041802991727 4.399359881459538 -0.12356074490016672 Q 4.450163533098097 -0.0900310717704162 4.494547299248502 -0.019894909184300147 Q 4.5255624611367375 0.02911590322527491 4.541142896563952 0.08552733851900252 Q 4.556723331991165 0.14193877381273018 4.5541424367763375 0.192091929046375 L 4.509336723247561 0.19796117390216333 Q 4.511382874291902 0.14696300466145684 4.497053503788242 0.09626863474754188 Q 4.482724133284583 0.04557426483362681 4.456521668930729 0.004168578487606545 Q 4.404651484393508 -0.07779778019737243 4.344958729593762 -0.0991934579014685 Q 4.285265974794018 -0.12058913560556461 4.232875106356197 -0.08743499703538204 Q 4.193159448024299 -0.06230202102250171 4.183937148429718 -0.024513806058206633 Q 4.174714848835135 0.013274408906088442 4.183429405548684 0.05509613174585623 Q 4.192143962262232 0.09691785458562405 4.2146760719057745 0.16431447197115295 Q 4.239796106899088 0.23954068975414866 4.249184086614372 0.2880367291477467 Q 4.258572066329656 0.33653276854134484 4.245108240612728 0.38351388599361685 Q 4.2316444148958 0.43049500344588887 4.179253546457978 0.46364914201607144 Q 4.136157832097834 0.49092109471089906 4.085961779112858 0.4901424646771503 Q 4.035765726127882 0.4893638346434015 3.984159958233592 0.4545666405030584 Q 3.9325541903393026 0.4197694463627154 3.888170424188897 0.3496332837765994 Q 3.8469951230614123 0.2845672052328532 3.8322232743997118 0.21166801122416873 M 4.762814724004801 0.6436529928937349 L 4.676603157457405 0.40685863951206325 L 4.719827523550885 0.3911216075232529 L 4.909698235589792 0.9126329810424106 L 4.866473869496312 0.9283700130312209 L 4.780262302948916 0.6915756596495493 L 4.165724576315531 0.9153152014035049 L 4.148276997371415 0.8673925346476904 L 4.762814724004801 0.6436529928937349 M 4.519935655351942 1.6817688562243585 L 4.4708129134308985 1.278751541179262 L 4.264491891029773 1.214240800094119 L 4.257837332395149 1.1596448584008177 L 4.991654188134419 1.3945848980554754 L 4.997824778868343 1.4452102258074455 L 4.341926755141762 1.8495390307070791 L 4.335272196507138 1.7949430890137776 L 4.519935655351942 1.6817688562243585 M 4.560320907692925 1.6577057850705121 L 4.939090392335159 1.4261767857985932 L 4.515916852803707 1.2934019559533927 L 4.560320907692925 1.6577057850705121 M 4.9531909578273225 2.1826179498450498 L 4.981580640228677 1.9322222111969047 L 5.027287798870798 1.9374044548098504 L 4.96476290310591 2.4888712601658844 L 4.9190557444637895 2.4836890165529386 L 4.947445426865143 2.2332932779047936 L 4.2976088670401955 2.159615292625088 L 4.303354398002374 2.1089399645653444 L 4.9531909578273225 2.1826179498450498 M 4.1044516314675334 3.0338048840233864 L 4.061191735883049 3.018165784496257 L 4.225402280917906 2.5639368808591647 L 4.883705039812243 2.8019231780111324 L 4.724594201144927 3.2420455939576316 L 4.681334305560442 3.2264064944305026 L 4.823106142578115 2.834246136632019 L 4.563546769071205 2.740411539469243 L 4.4367340707316565 3.091192866708654 L 4.394414607659877 3.0758937476060275 L 4.5212273059994255 2.725112420366617 L 4.251323174852748 2.62753803853431 L 4.1044516314675334 3.0338048840233864" fill="#ffffff" fill-rule="nonzero"></path></g><g transform="matrix(1,0,0,1,0,0)" clip-path="url(#SvgjsClipPath118380)"><g clip-path="url(#SvgjsClipPath118367ef698518-6829-4d69-b64a-6fe384b9928c)"><path d=" M 0.29801847623733785 1.4453367631336806 L 0.29801847623733785 3.644594303990924 L 0 3.644594303990924 L 0 1.6345640993968895 Z" fill="#bd2949" transform="matrix(1,0,0,1,0,0)" fill-rule="nonzero"></path></g><g clip-path="url(#SvgjsClipPath118367ef698518-6829-4d69-b64a-6fe384b9928c)"><path d=" M 2.4972760170945816 0.6034719248548173 L 2.199257540857243 0.4142445885916084 L 1.5481507684492646 0 L 0.6004833575255446 0.6034719248548173 L 0.6004833575255446 0.7375565492986432 L 0.6004833575255446 0.956596666968498 L 0.6004833575255446 3.1677720311997914 L 2.4972760170945816 3.1677720311997914 L 2.4972760170945816 1.6077398853195164 L 2.4972760170945816 1.2546151432058357 L 2.199257540857243 1.065351360999587 L 1.5481507684492646 0.6511432183510185 L 1.2009667150510892 0.8716776196855093 L 1.2009667150510892 1.2262966454638262 L 1.5481507684492646 1.0042679604646991 L 2.199257540857243 1.4185125490563075 L 2.199257540857243 2.8697900009054935 L 0.8984653878198426 2.8697900009054935 L 0.8984653878198426 0.7673693307052891 L 1.5481507684492646 0.35312474211368067 L 2.199257540857243 0.7673693307052891 L 2.4972760170945816 0.956596666968498 L 2.799740898382788 1.148812570560979 L 2.799740898382788 3.6444849661618046 L 3.097759374620126 3.6444849661618046 L 3.097759374620126 0.9849151647105073 Z" fill="#bd2949" transform="matrix(1,0,0,1,0,0)" fill-rule="nonzero"></path></g><g clip-path="url(#SvgjsClipPath118367ef698518-6829-4d69-b64a-6fe384b9928c)"><path d=" M 0.6004833575255446 3.3464664899244667 L 2.4972760170945816 3.3464664899244667 L 2.4972760170945816 3.6444849661618046 L 0.6004833575255446 3.6444849661618046 Z" fill="#de6d2e" transform="matrix(1,0,0,1,0,0)" fill-rule="nonzero"></path></g></g><g transform="matrix(-0.7474089093568603,-0.6643642993222834,0.6643642993222834,-0.7474089093568603,-4.116315610177435,5.813709688067442)"><g clip-path="url(#SvgjsClipPath118381)"><path d=" M -0.9529725382934163 3.786956248362853 C -0.8986483986382439 3.786956248362853 -0.8536503150175543 3.7420544337076804 -0.8536503150175543 3.687634025086991 C -0.8536503150175543 3.633310104224922 -0.8986483986382439 3.588312130000784 -0.9529725382934163 3.588312130000784 C -1.0073930563106577 3.588312130000784 -1.0522947615692784 3.633310104224922 -1.0522947615692784 3.687634025086991 C -1.0522947615692784 3.7420544337076804 -1.0072968967416922 3.786956248362853 -0.9529725382934163 3.786956248362853 Z M -0.9529725382934163 3.7674388095697493 L -0.9529725382934163 3.6079266035352666 C -0.9088397813968646 3.6079266035352666 -0.8732651167416922 3.643406093190439 -0.873168847776175 3.687634025086991 C -0.873168847776175 3.73186305094906 -0.9087435124313473 3.7674388095697493 -0.9529725382934163 3.7674388095697493 Z" fill="#ffffff" transform="matrix(1,0,0,1,0,0)" fill-rule="nonzero"></path></g></g><g transform="matrix(0.7474089093568603,-0.6643642993222834,-0.6643642993222834,-0.7474089093568603,3.474261698176902,9.137992289809343)"><g clip-path="url(#SvgjsClipPath118382)"><path d=" M 4.050731912913542 3.7869562483628534 C 4.105056052568715 3.7869562483628534 4.1500541361894046 3.742054433707681 4.1500541361894046 3.6876340250869912 C 4.1500541361894046 3.6333101042249223 4.105056052568715 3.5883121300007845 4.050731912913542 3.5883121300007845 C 3.996311394896301 3.5883121300007845 3.9514096896376802 3.6333101042249223 3.9514096896376802 3.6876340250869912 C 3.9514096896376802 3.742054433707681 3.996407554465266 3.7869562483628534 4.050731912913542 3.7869562483628534 Z M 4.050731912913542 3.76743880956975 L 4.050731912913542 3.607926603535267 C 4.094864669810094 3.607926603535267 4.130439334465266 3.6434060931904395 4.130535603430784 3.6876340250869912 C 4.130535603430784 3.7318630509490602 4.094960938775611 3.76743880956975 4.050731912913542 3.76743880956975 Z" fill="#ffffff" transform="matrix(1,0,0,1,0,0)" fill-rule="nonzero"></path></g></g></g><defs><clipPath id="SvgjsClipPath118380"><path d=" M 0 0 h 3.097759374620126 v 3.644594303990924 h -3.097759374620126 Z"></path></clipPath><clipPath id="SvgjsClipPath118367ef698518-6829-4d69-b64a-6fe384b9928c"><path d=" M 0 0 L 3.097759374620126 0 L 3.097759374620126 3.644594303990924 L 0 3.644594303990924 Z"></path></clipPath><clipPath id="SvgjsClipPath118381"><path d=" M -1.1061277107072094 3.530740772500784 h 0.3063103448275862 v 0.31725 h -0.3063103448275862 Z"></path></clipPath><clipPath id="SvgjsClipPath118382"><path d=" M 3.897576740499749 3.5307407725007844 h 0.3063103448275862 v 0.31725 h -0.3063103448275862 Z"></path></clipPath></defs></svg>